<?xml version="1.0" standalone="no"?>
<!DOCTYPE svg PUBLIC "-//W3C//DTD SVG 20010904//EN"
 "http://www.w3.org/TR/2001/REC-SVG-20010904/DTD/svg10.dtd">
<svg version="1.0" xmlns="http://www.w3.org/2000/svg"
 width="4000.000000pt" height="4000.000000pt" viewBox="0 0 4000.000000 4000.000000"
 preserveAspectRatio="xMidYMid meet">

<g transform="translate(0.000000,4000.000000) scale(0.100000,-0.100000)"
fill="#000000" stroke="none">
<path d="M18850 34174 c-741 -49 -1286 -165 -1915 -407 -999 -384 -1928 -1124
-2538 -2022 -393 -580 -644 -1183 -763 -1835 -14 -80 -28 -147 -30 -149 -2 -2
-48 -18 -101 -36 -661 -216 -1371 -759 -1816 -1388 -412 -582 -625 -1287 -604
-1992 21 -664 221 -1283 598 -1845 810 -1207 2210 -1802 3685 -1565 53 8 99
13 101 11 4 -4 -324 -2345 -343 -2453 l-6 -33 103 46 c495 217 1235 424 1944
543 932 157 2036 183 3022 71 1662 -188 3000 -793 4331 -1959 186 -163 416
-389 477 -469 l40 -53 6 898 c8 1021 20 1395 65 1933 15 181 48 503 60 587 l6
42 37 -18 c76 -39 372 -151 511 -194 413 -127 743 -173 1173 -164 266 5 421
23 639 72 1178 265 2179 1161 2703 2420 291 700 405 1444 329 2163 -113 1086
-625 2064 -1446 2766 -71 60 -128 114 -128 120 -1 27 -40 289 -55 361 -74 367
-215 765 -390 1102 -215 415 -461 750 -794 1084 -324 324 -588 518 -957 703
-750 375 -1675 515 -2604 395 -283 -36 -584 -105 -853 -194 -133 -43 -319
-115 -366 -140 -25 -13 -30 -10 -206 164 -183 179 -291 276 -445 392 -326 248
-702 463 -1120 642 -544 233 -1081 356 -1725 397 -144 9 -510 11 -625 4z m745
-828 c562 -59 1065 -190 1570 -408 1191 -515 2164 -1425 2717 -2543 l80 -160
-7 85 c-31 435 -225 1033 -489 1503 -43 76 -76 140 -74 143 6 6 193 72 293
104 486 155 1019 227 1477 200 505 -29 915 -136 1333 -345 216 -108 340 -185
528 -327 1017 -764 1600 -2156 1630 -3888 l2 -125 71 140 c93 181 164 374 209
570 l7 30 64 -70 c290 -315 500 -665 639 -1065 340 -981 188 -2206 -392 -3167
-218 -362 -522 -714 -803 -932 -227 -176 -501 -330 -745 -419 -132 -48 -360
-105 -505 -127 -150 -23 -457 -30 -620 -16 -395 36 -818 159 -1192 347 -78 39
-88 47 -83 67 3 12 19 90 36 172 168 827 468 1724 820 2456 91 188 224 448
282 548 l31 55 -49 -35 c-89 -64 -293 -248 -404 -366 -953 -1018 -1552 -2514
-1710 -4273 -29 -320 -40 -518 -47 -898 l-7 -332 -31 25 c-606 493 -1464 934
-2351 1208 -1237 383 -2551 494 -3960 336 -570 -64 -1278 -201 -1846 -359 -38
-10 -69 -16 -69 -12 0 4 61 397 137 875 l137 867 116 62 c307 162 558 347 800
588 279 278 485 568 663 932 l82 167 55 16 c339 99 651 214 1344 491 838 336
1086 427 1436 529 608 175 1007 203 1460 99 37 -8 -64 83 -165 151 -199 132
-443 224 -715 271 -130 22 -475 30 -626 14 -441 -45 -847 -161 -1379 -395
-1056 -464 -2053 -648 -2850 -525 -723 112 -1293 461 -1664 1019 l-56 84 -3
-44 c-5 -60 15 -241 38 -356 158 -766 763 -1288 1670 -1442 144 -24 318 -41
433 -41 l88 0 -50 -73 c-146 -210 -391 -477 -571 -620 -362 -289 -746 -462
-1190 -538 -177 -30 -532 -37 -724 -15 -592 69 -1169 316 -1643 705 -125 102
-338 318 -437 441 -331 415 -551 922 -611 1410 -20 163 -20 496 0 659 53 429
204 829 449 1191 247 366 614 718 1021 982 95 62 308 188 318 188 2 0 7 -93
10 -207 6 -189 28 -412 59 -583 l12 -65 7 40 c4 22 20 105 34 185 166 928 601
1924 1173 2679 300 397 696 792 1087 1085 825 618 1822 992 2845 1066 168 12
632 4 805 -14z"/>
<path d="M18994 20219 c-383 -28 -694 -167 -954 -428 -233 -234 -413 -577
-500 -953 l-22 -97 -47 -6 c-440 -56 -839 -257 -1279 -641 -252 -221 -312
-270 -425 -344 -305 -203 -639 -327 -997 -370 -121 -14 -397 -12 -522 5 -183
24 -402 89 -496 147 -18 11 -35 18 -38 16 -2 -3 9 -43 25 -90 318 -899 1252
-1501 2546 -1640 190 -20 822 -17 1010 5 641 77 1208 257 1657 528 54 33 101
59 105 59 4 0 23 -15 43 -34 56 -54 225 -182 350 -266 746 -500 1676 -751
2695 -727 352 9 626 39 915 103 679 150 1275 474 1651 897 91 103 195 244 186
253 -3 3 -19 -2 -35 -10 -49 -25 -190 -63 -307 -82 -146 -23 -407 -23 -570 1
-597 86 -1138 394 -1606 911 -301 333 -552 530 -885 697 -252 126 -501 206
-809 258 -122 21 -544 39 -598 25 -17 -4 -39 -30 -75 -93 -240 -417 -579 -643
-927 -620 -384 27 -746 347 -869 768 -61 213 -55 427 20 654 136 410 466 767
937 1011 l118 61 -68 6 c-75 7 -71 8 -229 -4z"/>
<path d="M9995 18616 c-373 -97 -863 -420 -1328 -876 -286 -279 -470 -497
-652 -770 -166 -250 -256 -427 -331 -650 -36 -108 -38 -122 -38 -235 0 -95 5
-138 24 -205 130 -472 561 -1091 1205 -1735 317 -317 640 -595 967 -833 1004
-728 1737 -955 2408 -746 188 59 388 162 540 279 32 25 62 45 66 45 4 0 68
-58 143 -128 1635 -1539 3848 -3199 5828 -4372 144 -85 262 -158 262 -162 2
-17 -793 -402 -1329 -645 -597 -271 -1236 -536 -1849 -768 -306 -115 -355
-140 -449 -229 -121 -115 -180 -268 -152 -399 17 -83 82 -208 131 -252 118
-106 278 -121 518 -49 165 50 951 361 1436 569 768 329 1562 710 2310 1109
l290 155 100 -54 c1270 -679 2267 -1138 3581 -1648 399 -155 510 -185 652
-174 177 13 299 130 349 332 33 136 -23 291 -149 411 -94 89 -143 114 -449
229 -869 329 -1700 686 -2587 1114 -405 195 -592 290 -591 299 0 4 118 77 262
162 1266 750 2708 1754 3942 2744 685 549 1347 1120 1886 1628 75 70 139 128
143 128 4 0 34 -20 66 -45 152 -117 352 -220 540 -279 671 -209 1404 18 2408
746 537 390 1103 927 1512 1433 345 428 570 813 657 1123 22 79 27 119 27 212
1 107 -2 123 -37 234 -105 325 -300 654 -616 1036 -135 163 -520 545 -689 682
-488 396 -904 608 -1193 608 -117 0 -219 -28 -364 -99 -422 -208 -988 -717
-1691 -1521 -363 -416 -870 -1056 -1037 -1310 -229 -349 -364 -698 -408 -1054
-17 -139 -6 -411 21 -541 45 -215 146 -456 265 -635 31 -47 57 -88 58 -91 4
-13 -587 -526 -968 -840 -1683 -1387 -3537 -2651 -5469 -3728 l-220 -122 -50
27 c-130 70 -623 349 -840 476 -1725 1009 -3426 2200 -4921 3447 -382 318
-852 728 -848 740 1 3 27 44 58 91 119 179 220 420 265 635 27 130 38 402 21
541 -44 357 -178 703 -408 1054 -190 289 -741 978 -1152 1440 -643 723 -1179
1195 -1576 1391 -208 102 -363 123 -550 75z m356 -822 c50 -15 70 -32 282
-243 704 -698 1408 -1506 2017 -2316 262 -348 270 -363 270 -459 0 -101 -74
-203 -173 -241 -35 -13 -64 -16 -112 -13 -114 10 -126 21 -375 354 -622 830
-1174 1467 -2020 2329 -224 228 -230 237 -230 346 0 135 120 255 256 258 17 1
55 -6 85 -15z m19445 1 c105 -31 184 -136 184 -244 0 -111 2 -108 -346 -466
-776 -797 -1315 -1422 -1906 -2212 -246 -329 -259 -341 -373 -351 -48 -3 -77
0 -112 13 -99 38 -173 140 -173 241 0 96 8 111 271 459 616 820 1330 1640
2050 2351 170 169 200 194 244 207 64 20 100 20 161 2z m-20416 -643 c32 -15
102 -82 250 -239 113 -120 628 -643 1145 -1163 1233 -1239 1460 -1475 1496
-1554 26 -57 25 -157 -2 -216 -60 -132 -211 -189 -346 -131 -43 19 -80 54
-217 201 -216 233 -863 892 -1140 1162 -255 248 -1137 1145 -1373 1395 -135
144 -164 181 -178 224 -48 143 29 293 175 340 44 14 142 5 190 -19z m21465 0
c117 -60 172 -196 130 -321 -14 -43 -43 -80 -178 -224 -238 -253 -1098 -1127
-1368 -1391 -295 -288 -928 -933 -1145 -1166 -137 -147 -174 -182 -217 -201
-135 -58 -286 -1 -346 131 -27 59 -28 159 -2 216 36 78 273 325 1461 1519 498
501 997 1007 1109 1125 262 277 292 305 343 324 58 21 160 16 213 -12z
m-22109 -907 c33 -17 78 -56 138 -122 215 -237 587 -624 906 -943 595 -596
1069 -1028 1544 -1410 214 -172 231 -196 231 -320 0 -64 -4 -82 -27 -122 -74
-124 -223 -172 -346 -109 -67 34 -403 308 -717 586 -546 483 -1311 1238 -1948
1925 -125 135 -160 196 -160 279 0 64 29 140 71 185 72 76 211 99 308 51z
m22749 1 c92 -43 148 -133 148 -237 0 -83 -35 -144 -160 -279 -461 -497 -1188
-1230 -1578 -1590 -459 -424 -983 -868 -1089 -922 -121 -62 -271 -13 -344 110
-23 40 -27 58 -27 122 0 113 25 154 155 258 423 337 736 615 1282 1139 310
298 877 877 1177 1203 179 194 216 220 320 220 48 0 79 -6 116 -24z"/>
<path d="M15705 14884 c19 -78 58 -211 95 -319 281 -813 855 -1450 1665 -1845
416 -203 864 -330 1395 -395 180 -23 707 -32 907 -16 1104 88 2083 507 2745
1174 101 102 308 343 308 359 0 3 -71 -25 -157 -64 -1337 -591 -2610 -821
-3753 -678 -858 107 -1645 422 -2315 925 -331 248 -620 529 -839 814 -45 59
-56 69 -51 45z"/>
</g>
</svg>
